<?xml version="1.0" encoding="UTF-8" standalone="no"?>
<!-- Created with Inkscape (http://www.inkscape.org/) -->

<svg
   xmlns:dc="http://purl.org/dc/elements/1.1/"
   xmlns:cc="http://creativecommons.org/ns#"
   xmlns:rdf="http://www.w3.org/1999/02/22-rdf-syntax-ns#"
   xmlns:svg="http://www.w3.org/2000/svg"
   xmlns="http://www.w3.org/2000/svg"
   version="1.1"
   width="1400"
   height="1400"
   id="svg3147">
  <metadata
     id="metadata3161">
    <rdf:RDF>
      <cc:Work
         rdf:about="">
        <dc:format>image/svg+xml</dc:format>
        <dc:type
           rdf:resource="http://purl.org/dc/dcmitype/StillImage" />
        <dc:title></dc:title>
      </cc:Work>
    </rdf:RDF>
  </metadata>
  <defs
     id="defs3159" />
  <g
     transform="matrix(0,-1,1,0,700,700)"
     id="g3149"
     style="fill:none;stroke:#00417c;stroke-opacity:1">
    <path
       d="M 350,0 H 600"
       id="path3151"
       style="fill:none;stroke:#00417c;stroke-width:53.98962402;stroke-linecap:round;stroke-opacity:1" />
    <path
       d="m 547.90708,47.935659 q -4.19382,47.935658 -16.64788,94.414811 m 0,0 q -6.71488,23.03772 -37.92057,37.21011 -31.2057,14.17238 -40.18474,31.74855 m 0,0 q -18.48715,39.64583 -43.57787,75.47909 m 0,0 q -25.09072,35.83326 -56.02263,66.76517 m 0,0 q -30.93191,30.93191 -66.76517,56.02263 m 0,0 q -35.83326,25.09072 -75.47909,43.57787 m 0,0 q -39.64583,18.48716 -81.89961,29.80902 m 0,0 Q 108.21981,488.148 91.165293,517.02407 74.11078,545.90014 47.935659,547.90708 m 0,0 q -47.935659,4.19383 -95.871318,0 m 0,0 q -47.935658,-4.19382 -94.414811,-16.64788 m 0,0 q -23.03772,-6.71488 -37.21011,-37.92057 -14.17238,-31.2057 -31.74855,-40.18474 m 0,0 q -39.64583,-18.48715 -75.47909,-43.57787 m 0,0 q -35.83326,-25.09072 -66.76517,-56.02263 m 0,0 q -30.93191,-30.93191 -56.02263,-66.76517 m 0,0 q -12.1197,-18.13842 -45.08732,-24.28822 -32.96761,-6.1498 -43.80594,-30.05996 m 0,0 q -20.33587,-43.61041 -32.78992,-90.08957 m 0,0 q -12.45406,-46.479153 -16.64788,-94.414811 m 0,0 q -4.19383,-47.935659 0,-95.871318 m 0,0 q 4.19382,-47.935658 16.64788,-94.414811 m 0,0 q 6.71488,-23.03772 37.92057,-37.21011 31.2057,-14.17238 40.18474,-31.74855 m 0,0 q 18.48715,-39.64583 43.57787,-75.47909 m 0,0 q 25.09072,-35.83326 56.02263,-66.76517 m 0,0 q 30.93191,-30.93191 66.76517,-56.02263 m 0,0 q 35.83326,-25.09072 75.47909,-43.57787 m 0,0 q 39.64583,-18.48716 81.89961,-29.80902 m 0,0 q 21.18971,-5.18509 38.244227,-34.06116 17.054513,-28.87607 43.229634,-30.88301 m 0,0 q 47.935659,-4.19383 95.871318,0 m 0,0 q 47.935658,4.19382 94.414811,16.64788 m 0,0 q 23.03772,6.71488 37.21011,37.92057 14.17238,31.2057 31.74855,40.18474 m 0,0 q 39.64583,18.48715 75.47909,43.57787 m 0,0 q 35.83326,25.09072 66.76517,56.02263 m 0,0 q 15.08528,15.75829 48.61994,16.08989 33.53467,0.33161 48.36029,21.99646 m 0,0 q 13.33168,19.95226 4.12972,52.96704 -9.20196,33.01478 -1.50945,51.19087 m 0,0 q 18.48716,39.64583 29.80902,81.89961 m 0,0 q 5.18509,21.18971 34.06116,38.244227 28.87607,17.054513 30.88301,43.229634"
       id="path3153"
       style="fill:none;stroke:#00417c;stroke-width:10;stroke-opacity:1" />
    <path
       d="m 498.09735,43.577871 q -3.81257,43.577872 -15.13444,85.831649 m 0,0 q -6.10443,20.94338 10.37572,50.15106 16.48015,29.20767 5.13065,52.87946 m 0,0 q -20.33587,43.61042 -47.93566,83.027 m 0,0 q -27.59979,39.41658 -61.62489,73.44169 m 0,0 q -34.02511,34.0251 -73.44169,61.62489 m 0,0 q -39.41658,27.59979 -83.027,47.93566 m 0,0 q -43.61041,20.33587 -90.08957,32.78992 m 0,0 Q 119.04179,536.9628 91.165293,517.02407 63.288799,497.08534 43.577871,498.09735 m 0,0 q -43.577871,3.81257 -87.155742,0 m 0,0 q -43.577872,-3.81257 -85.831649,-15.13444 m 0,0 q -20.94338,-6.10443 -50.15106,10.37572 -29.20767,16.48015 -52.87946,5.13065 m 0,0 q -43.61042,-20.33587 -83.027,-47.93566 m 0,0 q -39.41658,-27.59979 -73.44169,-61.62489 m 0,0 q -34.0251,-34.02511 -61.62489,-73.44169 m 0,0 q -13.33168,-19.95226 -4.12972,-52.96704 9.20196,-33.01478 1.50945,-51.19087 m 0,0 q -18.48716,-39.64583 -29.80902,-81.89961 m 0,0 q -11.32187,-42.253777 -15.13444,-85.831649 m 0,0 q -3.81257,-43.577871 0,-87.155742 m 0,0 q 3.81257,-43.577872 15.13444,-85.831649 m 0,0 q 6.10443,-20.94338 -10.37572,-50.15106 -16.48015,-29.20767 -5.13065,-52.87946 m 0,0 q 20.33587,-43.61042 47.93566,-83.027 m 0,0 q 27.59979,-39.41658 61.62489,-73.44169 m 0,0 q 34.02511,-34.0251 73.44169,-61.62489 m 0,0 q 39.41658,-27.59979 83.027,-47.93566 m 0,0 q 43.61041,-20.33587 90.08957,-32.78992 m 0,0 q 23.30868,-5.7036 51.185177,14.23513 27.876494,19.93873 47.587422,18.92672 m 0,0 q 43.577871,-3.81257 87.155742,0 m 0,0 q 43.577872,3.81257 85.831649,15.13444 m 0,0 q 20.94338,6.10443 50.15106,-10.37572 29.20767,-16.48015 52.87946,-5.13065 m 0,0 q 43.61042,20.33587 83.027,47.93566 m 0,0 q 39.41658,27.59979 73.44169,61.62489 m 0,0 q 16.59381,17.33412 13.2646,51.44523 -3.3292,34.11112 7.40269,50.67528 m 0,0 q 12.1197,18.13842 45.08732,24.28822 32.96761,6.1498 43.80594,30.05996 m 0,0 q 20.33587,43.61041 32.78992,90.08957 m 0,0 q 5.7036,23.30868 -14.23513,51.185177 -19.93873,27.876494 -18.92672,47.587422"
       id="path3155"
       style="fill:none;stroke:#00417c;stroke-width:10;stroke-opacity:1" />
  </g>
</svg>
